<?xml version="1.0" standalone="no"?>
<!DOCTYPE svg PUBLIC "-//W3C//DTD SVG 20010904//EN"
 "http://www.w3.org/TR/2001/REC-SVG-20010904/DTD/svg10.dtd">
<svg version="1.0" xmlns="http://www.w3.org/2000/svg"
 width="443.000000pt" height="443.000000pt" viewBox="0 0 443.000000 443.000000"
 preserveAspectRatio="xMidYMid meet">
<metadata>
Created by potrace 1.14, written by Peter Selinger 2001-2017
</metadata>
<g transform="translate(0.000000,443.000000) scale(0.100000,-0.100000)"
fill="#000000" stroke="none">
<path d="M2128 4425 c-2 -1 -46 -5 -98 -9 -52 -3 -106 -8 -120 -11 -13 -2 -42
-7 -65 -10 -97 -15 -288 -66 -410 -112 -175 -65 -440 -213 -574 -322 -25 -20
-54 -43 -64 -51 -82 -65 -211 -198 -320 -331 -48 -57 -172 -249 -214 -329 -36
-69 -122 -262 -127 -285 -2 -5 -17 -55 -34 -110 -33 -106 -66 -261 -77 -360
-4 -33 -9 -71 -11 -85 -6 -32 -6 -332 0 -388 12 -110 18 -154 37 -247 95 -473
349 -908 718 -1229 195 -170 453 -322 693 -407 146 -52 234 -76 368 -99 30 -6
66 -12 80 -15 136 -27 470 -22 675 10 273 43 589 167 840 330 164 106 374 294
513 461 72 87 204 297 265 424 55 113 127 299 142 368 2 9 13 53 24 97 10 44
22 100 26 125 4 25 9 53 11 63 30 161 22 530 -15 708 -7 31 -14 69 -17 85 -8
38 -8 41 -23 94 -7 25 -15 52 -16 60 -28 128 -172 431 -283 595 -372 551 -942
894 -1613 970 -54 6 -306 14 -311 10z"/>
</g>
</svg>
